<?xml version="1.0" encoding="UTF-8" standalone="no"?>
<!-- Created with Inkscape (http://www.inkscape.org/) -->

<svg
   xmlns:dc="http://purl.org/dc/elements/1.1/"
   xmlns:cc="http://creativecommons.org/ns#"
   xmlns:rdf="http://www.w3.org/1999/02/22-rdf-syntax-ns#"
   xmlns:svg="http://www.w3.org/2000/svg"
   xmlns="http://www.w3.org/2000/svg"
   xmlns:sodipodi="http://sodipodi.sourceforge.net/DTD/sodipodi-0.dtd"
   xmlns:inkscape="http://www.inkscape.org/namespaces/inkscape"
   width="166"
   height="71"
   viewBox="0 0 166 71.000001"
   id="svg2"
   version="1.1"
   inkscape:version="0.91 r13725"
   sodipodi:docname="logo.svg"
   inkscape:export-filename="/home/paul/proj/orb/orb/logo.png"
   inkscape:export-xdpi="90"
   inkscape:export-ydpi="90">
  <defs
     id="defs4" />
  <sodipodi:namedview
     id="base"
     pagecolor="#ffffff"
     bordercolor="#666666"
     borderopacity="1.0"
     inkscape:pageopacity="0.0"
     inkscape:pageshadow="2"
     inkscape:zoom="1.4142136"
     inkscape:cx="419.38372"
     inkscape:cy="-73.572359"
     inkscape:document-units="px"
     inkscape:current-layer="layer1"
     showgrid="false"
     units="px"
     showborder="true"
     inkscape:window-width="1916"
     inkscape:window-height="1041"
     inkscape:window-x="0"
     inkscape:window-y="18"
     inkscape:window-maximized="0" />
  <metadata
     id="metadata7">
    <rdf:RDF>
      <cc:Work
         rdf:about="">
        <dc:format>image/svg+xml</dc:format>
        <dc:type
           rdf:resource="http://purl.org/dc/dcmitype/StillImage" />
        <dc:title></dc:title>
      </cc:Work>
    </rdf:RDF>
  </metadata>
  <g
     inkscape:label="Layer 1"
     inkscape:groupmode="layer"
     id="layer1"
     transform="translate(0,-981.36214)">
    <g
       style="font-style:normal;font-variant:normal;font-weight:bold;font-stretch:normal;font-size:40px;line-height:125%;font-family:Comfortaa;-inkscape-font-specification:'Comfortaa Bold';letter-spacing:0px;word-spacing:0px;fill:#000000;fill-opacity:1;stroke:none;stroke-width:1px;stroke-linecap:butt;stroke-linejoin:miter;stroke-opacity:1"
       id="text4140"
       transform="translate(-15.904472,872.89206)">
      <g
         id="g4151"
         transform="translate(-4.2426407,-82.024387)">
        <path
           inkscape:connector-curvature="0"
           id="path4145"
           style="font-size:90px;letter-spacing:-1.39999998px"
           d="m 55.328366,200.15463 q -5.449219,0 -9.975586,1.88965 -4.482422,1.88965 -8.305664,5.71289 -3.823242,3.82324 -5.712891,8.30566 -1.845703,4.48242 -1.845703,9.93164 0,10.72266 7.558594,18.28125 7.558594,7.5586 18.28125,7.5586 10.722656,0 18.28125,-7.5586 7.558594,-7.55859 7.558594,-18.28125 0,-10.67871 -7.558594,-18.2373 -7.602539,-7.60254 -18.28125,-7.60254 z m 35.15625,25.83984 q 0,14.5459 -10.327148,24.87305 -10.283204,10.2832 -24.829102,10.2832 -14.589844,0 -24.873047,-10.2832 -10.283203,-10.2832 -10.283203,-24.87305 0,-14.5459 10.283203,-24.8291 10.327149,-10.32715 24.873047,-10.32715 14.501953,0 24.829102,10.32715 5.185546,5.18555 7.734375,11.33789 2.592773,6.15234 2.592773,13.49121 z" />
        <path
           inkscape:connector-curvature="0"
           id="path4147"
           style="font-size:90px;letter-spacing:-1.39999998px"
           d="m 105.12465,216.50228 0,0.87891 q 3.2959,-2.63672 7.16309,-4.04297 3.86719,-1.40625 8.26172,-1.40625 1.93359,0 4.13086,0.26367 2.24121,0.26368 4.08691,0.9668 1.88965,0.65918 3.12012,1.8457 1.23047,1.18653 1.23047,3.07618 0,0.96679 -0.39551,1.80175 -0.35156,0.83496 -0.9668,1.49414 -0.61523,0.61524 -1.45019,0.9668 -0.83496,0.35156 -1.80176,0.35156 -0.83496,0 -1.93359,-0.48339 -2.76856,-1.09864 -6.02051,-1.09864 -3.20801,0 -6.02051,1.23047 -2.8125,1.18652 -4.92188,3.2959 -2.06543,2.06543 -3.29589,4.87793 -1.18653,2.8125 -1.18653,6.02051 l 0,20.03906 q 0,1.88965 -1.3623,3.25195 -1.31836,1.31836 -3.20801,1.31836 -1.933593,0 -3.295897,-1.31836 -1.31836,-1.3623 -1.31836,-3.25195 l 0,-40.07813 q 0,-1.88964 1.31836,-3.208 1.362304,-1.36231 3.295897,-1.36231 1.88965,0 3.20801,1.36231 1.3623,1.31836 1.3623,3.208 z" />
        <path
           inkscape:connector-curvature="0"
           id="path4149"
           style="font-size:90px;letter-spacing:-1.39999998px"
           d="m 161.51274,251.96615 q 3.208,0 6.0205,-1.23047 2.8125,-1.23047 4.87793,-3.33984 2.10938,-2.10938 3.2959,-4.87793 1.23047,-2.8125 1.23047,-5.97656 0,-3.16407 -1.23047,-5.93262 -1.18652,-2.8125 -3.2959,-4.92188 -2.06543,-2.10937 -4.87793,-3.33984 -2.8125,-1.23047 -6.0205,-1.23047 -3.25196,0 -6.06446,1.23047 -2.8125,1.23047 -4.87793,3.33984 -2.06543,2.06543 -3.29589,4.87793 -1.18653,2.8125 -1.18653,5.97657 0,3.16406 1.18653,5.97656 1.23046,2.8125 3.29589,4.92187 2.06543,2.06543 4.87793,3.2959 2.8125,1.23047 6.06446,1.23047 z m -15.42481,-34.58496 q 6.54785,-5.44922 15.42481,-5.44922 10.10742,0 17.40234,7.20703 3.60352,3.55957 5.40527,7.9541 1.80176,4.35059 1.80176,9.44825 0,10.2832 -7.20703,17.40234 -7.29492,7.20703 -17.40234,7.20703 -10.19532,0 -17.40235,-7.20703 -7.20703,-7.20703 -7.20703,-17.40234 l 0,-41.13281 q 0,-1.97754 1.27442,-3.25196 1.31836,-1.31836 3.29589,-1.31836 1.9336,0 3.25196,1.31836 1.3623,1.27442 1.3623,3.25196 l 0,21.97265 z" />
      </g>
    </g>
  </g>
</svg>
